<svg width="16" height="16" viewBox="0 0 16 16" fill="none" xmlns="http://www.w3.org/2000/svg">
<path d="M11.3333 2.33435C11.3333 2.24594 11.2982 2.16116 11.2357 2.09864C11.1732 2.03613 11.0884 2.00101 11 2.00101H9.33333C8.49408 1.95921 7.6724 2.25127 7.04781 2.8134C6.42323 3.37552 6.04652 4.16201 6 5.00101V6.80101H4.33333C4.24493 6.80101 4.16014 6.83613 4.09763 6.89864C4.03512 6.96116 4 7.04594 4 7.13435V8.86768C4 8.95609 4.03512 9.04087 4.09763 9.10338C4.16014 9.16589 4.24493 9.20101 4.33333 9.20101H6V13.6677C6 13.7561 6.03512 13.8409 6.09763 13.9034C6.16014 13.9659 6.24493 14.001 6.33333 14.001H8.33333C8.42174 14.001 8.50652 13.9659 8.56903 13.9034C8.63155 13.8409 8.66667 13.7561 8.66667 13.6677V9.20101H10.4133C10.4875 9.20208 10.5598 9.1784 10.619 9.13373C10.6781 9.08905 10.7207 9.02593 10.74 8.95435L11.22 7.22101C11.2333 7.17176 11.235 7.12012 11.2252 7.07007C11.2154 7.02002 11.1942 6.9729 11.1633 6.93233C11.1324 6.89175 11.0926 6.85882 11.0469 6.83605C11.0013 6.81329 10.951 6.8013 10.9 6.80101H8.66667V5.00101C8.68325 4.836 8.76074 4.68309 8.88401 4.57214C9.00729 4.4612 9.16749 4.40018 9.33333 4.40101H11C11.0884 4.40101 11.1732 4.36589 11.2357 4.30338C11.2982 4.24087 11.3333 4.15608 11.3333 4.06768V2.33435Z" fill="white"/>
</svg>
